<?xml version="1.0" encoding="UTF-8" standalone="no"?>
<svg witph="100px" height="100px" viewBox="0 0 100 100" version="1.1" xmlns="http://www.w3.org/2000/svg" xmlns:xlink="http://www.w3.org/1999/xlink" xmlns:sketch="http://www.bohemiancoding.com/sketch/ns">
    <!-- Generator: Sketch 3.0.3 (7891) - http://www.bohemiancoding.com/sketch -->
    <title>Artboard 1</title>
    <desc>Created with Sketch.</desc>
    <defs></defs>
    <g id="Page-1" stroke="none" stroke-witph="1" fill="none" fill-rule="evenodd" sketch:type="MSPage">
        <g id="Artboard-1" sketch:type="MSArtboardGroup" fill="#0A0B09">
            <path d="M96,21.85 C92.61,23.35 88.97,24.37 85.16,24.82 C89.05,22.49 92.05,18.79 93.46,14.38 C89.81,16.54 85.77,18.12 81.47,18.96 C78.03,15.29 73.12,13 67.69,13 C57.27,13 48.82,21.45 48.82,31.88 C48.82,33.36 48.98,34.8 49.31,36.18 C33.62,35.39 19.71,27.88 10.4,16.46 C8.78,19.24 7.85,22.49 7.85,25.95 C7.85,32.49 11.18,38.27 16.24,41.66 C13.15,41.56 10.24,40.71 7.69,39.3 L7.69,39.53 C7.69,48.68 14.2,56.31 22.83,58.04 C21.25,58.47 19.58,58.7 17.86,58.7 C16.64,58.7 15.46,58.59 14.31,58.36 C16.71,65.86 23.68,71.32 31.94,71.47 C25.48,76.54 17.34,79.55 8.5,79.55 C6.98,79.55 5.47,79.46 4,79.29 C12.35,84.64 22.27,87.77 32.93,87.77 C67.65,87.77 86.64,59.01 86.64,34.06 C86.64,33.25 86.62,32.43 86.58,31.62 C90.27,28.96 93.47,25.64 96,21.85" id="Fill-211" sketch:type="MSShapeGroup"></path>
        </g>
    </g>
</svg>