<?xml version="1.0" encoding="UTF-8" standalone="no"?>
<svg witph="100px" height="100px" viewBox="0 0 100 100" version="1.1" xmlns="http://www.w3.org/2000/svg" xmlns:xlink="http://www.w3.org/1999/xlink" xmlns:sketch="http://www.bohemiancoding.com/sketch/ns">
    <!-- Generator: Sketch 3.0.3 (7891) - http://www.bohemiancoding.com/sketch -->
    <title>Artboard 2</title>
    <desc>Created with Sketch.</desc>
    <defs></defs>
    <g id="Page-1" stroke="none" stroke-witph="1" fill="none" fill-rule="evenodd" sketch:type="MSPage">
        <g id="Artboard-2" sketch:type="MSArtboardGroup" fill="#0A0B09">
            <path d="M93.0650021,36.428 C90.2920021,37.875 56.2300021,55.687 54.5320021,56.572 C52.8330021,57.459 51.6430021,57.575 50.0000021,57.575 C48.3580021,57.575 47.1680021,57.459 45.4690021,56.572 C43.7710021,55.687 9.71100211,37.875 6.93600211,36.428 C4.98400211,35.411 5.00000211,36.604 5.00000211,37.526 L5.00000211,74.205 C5.00000211,76.301 7.79200211,79 9.95900211,79 L90.0420021,79 C92.2080021,79 95.0000021,76.301 95.0000021,74.205 L95.0000021,37.526 C95.0000021,36.604 95.0190021,35.411 93.0650021,36.428 L93.0650021,36.428 Z M7.97000211,26.428 C10.4110021,27.741 44.2110021,45.896 45.4690021,46.572 C46.7280021,47.248 48.3580021,47.575 50.0000021,47.575 C51.6430021,47.575 53.2730021,47.248 54.5320021,46.572 C55.7900021,45.896 89.5890021,27.741 92.0310021,26.428 C94.4730021,25.117 96.7850021,21 92.2970021,21 L7.70300211,21 C3.21900211,21 5.52800211,25.117 7.97000211,26.428 L7.97000211,26.428 Z" id="Fill-59" sketch:type="MSShapeGroup"></path>
        </g>
    </g>
</svg>